# xmcd
#
# Track frame offsets:
#	150
#	16907
#	36020
#	50270
#	65452
#	79627
#	92722
#	107365
#	119712
#	133262
#	153287
#	167762
#	183287
#	202037
#
# Disc length: 2859 seconds
#
# Revision: 0
# Processed by: cddbd v1.5.2PL0 Copyright (c) Steve Scherf et al.
# Submitted via: EasyCDDAExtractor 16.0.8.2
#
DISCID=b30b290e
DTITLE=Άνευ ερμηνευτού - Αλέξανδρος-Σταμ. Σπανουδάκης
DYEAR=1999
DGENRE=Πατριωτική
TTITLE0=Στην αυλή του Βασιλιά
TTITLE1=Ηφαιστίων
TTITLE2=Ο χορός των ασπίδων
TTITLE3=Ζει ο Βασιλιάς Αλέξανδρος
TTITLE4=Πόλεμος
TTITLE5=Η μοναξιά του Βασιλιά
TTITLE6=Γυάλινη θάλασσα
TTITLE7=Κατακτήσεις
TTITLE8=Στρατιώτες γύρω απ' τη φωτιά
TTITLE9=Αλεξάνδρεια
TTITLE10=Βουκεφάλας
TTITLE11=Αλέ Ισκαντάρ
TTITLE12=''Όταν θά 'στε ευτυχισμένοι''
TTITLE13=Ζει και βασιλεύει
EXTD=
EXTT0=
EXTT1=
EXTT2=
EXTT3=
EXTT4=
EXTT5=
EXTT6=
EXTT7=
EXTT8=
EXTT9=
EXTT10=
EXTT11=
EXTT12=
EXTT13=
PLAYORDER=
